<svg width="16" height="16" viewBox="0 0 16 16" fill="none" xmlns="http://www.w3.org/2000/svg">
<g clip-path="url(#clip0_3017_2613)">
<path d="M8.242 9.96467C8.242 8.73267 7.656 7.822 6.44533 7.48067C7.32867 7.06 7.78933 6.42267 7.78933 5.43133C7.78933 3.47667 6.328 3 4.642 3H0V12.814H4.772C6.56133 12.814 8.242 11.9587 8.242 9.96467ZM2.164 4.67533H4.19467C4.97533 4.67533 5.678 4.894 5.678 5.79667C5.678 6.63 5.13133 6.96533 4.358 6.96533H2.164V4.67533ZM2.16333 11.1473V8.44467H4.522C5.47467 8.44467 6.07733 8.84067 6.07733 9.846C6.07733 10.8373 5.358 11.1473 4.47733 11.1473H2.16333Z" fill="#9CA4AB"/>
<path d="M12.5308 12.9998C14.2335 12.9998 15.3361 12.2351 15.8668 10.6098H14.1388C13.9528 11.2165 13.1861 11.5371 12.5915 11.5371C11.4441 11.5371 10.8415 10.8671 10.8415 9.72848H15.9835C16.1461 7.44981 14.8768 5.50781 12.5301 5.50781C10.3575 5.50781 8.88281 7.13581 8.88281 9.26848C8.88281 11.4818 10.2801 12.9998 12.5308 12.9998ZM12.4695 6.98248C13.4528 6.98248 13.9475 7.55848 14.0301 8.50048H10.8441C10.9088 7.56648 11.5308 6.98248 12.4695 6.98248Z" fill="#9CA4AB"/>
<path d="M10.4453 3.51562H14.4373V4.48229H10.4453V3.51562Z" fill="#9CA4AB"/>
</g>
<defs>
<clipPath id="clip0_3017_2613">
<rect width="16" height="16" fill="white"/>
</clipPath>
</defs>
</svg>
