<svg width="28" height="16" viewBox="0 0 28 16" fill="none" xmlns="http://www.w3.org/2000/svg">
<path d="M27.8149 7.55181L21.4515 1.18827C21.2229 0.921341 20.8211 0.890224 20.5542 1.11887C20.2873 1.34746 20.2562 1.74919 20.4848 2.01611C20.5061 2.04099 20.5293 2.06423 20.5542 2.08551L25.8295 7.36724H0.636333C0.284917 7.36724 0 7.65216 0 8.00363C0 8.3551 0.284917 8.63996 0.636333 8.63996H25.8295L20.5542 13.9153C20.2873 14.1439 20.2562 14.5456 20.4848 14.8125C20.7135 15.0795 21.1151 15.1106 21.3821 14.8819C21.4069 14.8606 21.4302 14.8374 21.4515 14.8125L27.815 8.449C28.0617 8.20088 28.0617 7.80003 27.8149 7.55181Z" fill="#62606A"/>
</svg>
