<svg width="28" height="16" viewBox="0 0 28 16" fill="none" xmlns="http://www.w3.org/2000/svg">
<path d="M0.185057 8.44819L6.54855 14.8117C6.77714 15.0787 7.17886 15.1098 7.44579 14.8811C7.71271 14.6525 7.74383 14.2508 7.51519 13.9839C7.49386 13.959 7.47067 13.9358 7.44579 13.9145L2.17045 8.63276L27.3637 8.63276C27.7151 8.63276 28 8.34784 28 7.99637C28 7.6449 27.7151 7.36004 27.3637 7.36004L2.17045 7.36004L7.44579 2.0847C7.71271 1.85611 7.74383 1.45438 7.51519 1.18746C7.28654 0.920532 6.88487 0.889417 6.61794 1.11806C6.59306 1.13939 6.56982 1.16257 6.54855 1.18746L0.185002 7.551C-0.0616888 7.79912 -0.0616884 8.19997 0.185057 8.44819Z" fill="#62606A"/>
</svg>
