<svg width="24" height="24" viewBox="0 0 24 24" fill="none" xmlns="http://www.w3.org/2000/svg">
<path fill-rule="evenodd" clip-rule="evenodd" d="M7.25965 6.75H5.93115C5.01315 6.75 4.25115 7.4595 4.18565 8.3755L3.32865 20.3755C3.29415 20.86 3.46214 21.337 3.79314 21.6925C4.12464 22.048 4.58815 22.25 5.07415 22.25H18.9261C19.4121 22.25 19.8756 22.048 20.2071 21.6925C20.5381 21.337 20.7061 20.86 20.6716 20.3755L19.8146 8.3755C19.7491 7.4595 18.9871 6.75 18.0691 6.75H16.7501V6.5C16.7501 3.8765 14.6236 1.75 12.0001 1.75C9.47265 1.75 7.13665 3.763 7.25015 6.5C7.25365 6.583 7.25665 6.6665 7.25965 6.75ZM16.7501 8.25V12C16.7501 12.414 16.4141 12.75 16.0001 12.75C15.5861 12.75 15.2501 12.414 15.2501 12V8.25H8.75015V12C8.75015 12.414 8.41415 12.75 8.00015 12.75C7.58615 12.75 7.25015 12.414 7.25015 12C7.25015 12 7.31515 10.2475 7.29365 8.25H5.93115C5.80015 8.25 5.69115 8.35149 5.68215 8.48199L4.82464 20.482C4.81964 20.5515 4.84365 20.6195 4.89115 20.6705C4.93865 20.721 5.00465 20.75 5.07415 20.75H18.9261C18.9956 20.75 19.0616 20.721 19.1091 20.6705C19.1566 20.6195 19.1807 20.5515 19.1757 20.482L18.3181 8.48199C18.3091 8.35149 18.2001 8.25 18.0691 8.25H16.7501ZM15.2501 6.75V6.5C15.2501 4.705 13.7951 3.25 12.0001 3.25C10.2051 3.25 8.75015 4.705 8.75015 6.5V6.75H15.2501Z" fill="#BA9B63"/>
</svg>
