<svg width="24" height="24" viewBox="0 0 24 24" fill="none" xmlns="http://www.w3.org/2000/svg">
<path d="M20.1941 18.7818H3.8042C3.27146 18.7812 2.76072 18.5693 2.38403 18.1926C2.00735 17.8158 1.79548 17.3051 1.79492 16.7723V6.6501C1.79548 6.11736 2.00735 5.60659 2.38403 5.22987C2.76072 4.85315 3.27146 4.64123 3.8042 4.64062H20.1941C20.7268 4.64123 21.2376 4.85315 21.6143 5.22987C21.9909 5.60659 22.2028 6.11736 22.2034 6.6501V16.7723C22.2028 17.3051 21.9909 17.8158 21.6143 18.1926C21.2376 18.5693 20.7268 18.7812 20.1941 18.7818ZM3.8042 5.40863C3.47507 5.40898 3.15952 5.5399 2.92681 5.77265C2.6941 6.0054 2.56323 6.32097 2.56292 6.6501V16.7723C2.56323 17.1015 2.6941 17.417 2.92681 17.6498C3.15952 17.8825 3.47507 18.0135 3.8042 18.0138H20.1941C20.5232 18.0135 20.8388 17.8825 21.0715 17.6498C21.3042 17.417 21.4351 17.1015 21.4354 16.7723V6.6501C21.4351 6.32097 21.3042 6.0054 21.0715 5.77265C20.8388 5.5399 20.5232 5.40898 20.1941 5.40863H3.8042Z" fill="white"/>
<path d="M12.0008 13.9701C11.9072 13.9702 11.8168 13.936 11.7466 13.8741L2.49219 5.70491L3.00041 5.12891L12.0008 13.0746L21.0016 5.12987L21.5098 5.70587L12.2554 13.8751C12.185 13.9368 12.0944 13.9706 12.0008 13.9701Z" fill="white"/>
<path d="M2.2832 17.5742L8.50021 10.4906L9.07775 10.9975L2.86074 18.0811L2.2832 17.5742Z" fill="white"/>
<path d="M14.9434 10.9922L15.5209 10.4853L21.738 17.5691L21.1605 18.076L14.9434 10.9922Z" fill="white"/>
</svg>
