<svg width="24" height="24" viewBox="0 0 24 24" fill="none" xmlns="http://www.w3.org/2000/svg">
<path d="M20.7629 3.88009C19.6497 2.6835 18.0897 2.00265 16.4553 2.00013C14.8197 2.00202 13.2581 2.6825 12.1431 3.87933L11.7631 4.28086L11.3831 3.87933C9.17069 1.49817 5.44682 1.36142 3.06571 3.57383C2.96019 3.67191 2.85829 3.77377 2.76021 3.87933C0.413263 6.4108 0.413263 10.3231 2.76021 12.8545L11.2047 21.7598C11.4968 22.0682 11.9837 22.0814 12.2921 21.7892C12.3022 21.7797 12.312 21.7699 12.3216 21.7598L20.763 12.8545C23.1097 10.3233 23.1097 6.41129 20.7629 3.88009ZM19.6499 11.7953H19.6491L11.7631 20.1129L3.87636 11.7953C2.08342 9.86104 2.08342 6.87206 3.87636 4.93778C5.50455 3.17306 8.25512 3.06241 10.0198 4.69061C10.1055 4.76966 10.188 4.8521 10.267 4.93778L11.2047 5.927C11.5137 6.23403 12.0126 6.23403 12.3216 5.927L13.2592 4.93854C14.8874 3.17383 17.638 3.06318 19.4027 4.69137C19.4884 4.77043 19.5708 4.85286 19.6499 4.93854C21.4584 6.87589 21.4717 9.87033 19.6499 11.7953Z" fill="#BA9B63"/>
</svg>
