<svg width="16" height="16" viewBox="0 0 16 16" fill="none" xmlns="http://www.w3.org/2000/svg">
<path d="M12.6641 15.3337C14.0574 15.3337 14.9974 14.3537 15.2741 12.6403C15.3055 12.4192 15.2922 12.194 15.235 11.9782C15.1777 11.7623 15.0777 11.5601 14.9407 11.3837L14.8874 11.3337L12.8641 9.73367C12.5583 9.50474 12.1832 9.38777 11.8016 9.40233C11.4199 9.41689 11.0548 9.56211 10.7674 9.81367L9.89406 10.6403C8.07406 10.227 5.46073 7.867 5.33073 6.127L6.19406 5.217C6.44152 4.92815 6.58273 4.56335 6.59425 4.18317C6.60577 3.80299 6.48691 3.43031 6.2574 3.127L4.66406 1.11033C4.64744 1.08817 4.62714 1.069 4.60406 1.05367C4.42803 0.91717 4.22642 0.817346 4.01115 0.760093C3.79588 0.70284 3.57131 0.689321 3.35073 0.720335C1.64406 1.00033 0.664062 1.94033 0.664062 3.33367C0.664063 6.51627 1.92834 9.56851 4.17878 11.8189C6.42922 14.0694 9.48147 15.3337 12.6641 15.3337ZM3.4574 1.38367C3.50512 1.38036 3.55301 1.38036 3.60073 1.38367C3.80613 1.38445 4.00632 1.44846 4.17406 1.567L5.73073 3.53367C5.86602 3.71357 5.93665 3.93385 5.93121 4.15888C5.92576 4.38391 5.84456 4.60052 5.70073 4.77367L4.75406 5.77367C4.69651 5.83514 4.66435 5.91612 4.66406 6.00033C4.66406 8.147 7.76073 10.967 9.94406 11.3337C9.99477 11.342 10.0467 11.3386 10.0959 11.3235C10.145 11.3085 10.19 11.2823 10.2274 11.247L11.2274 10.3103C11.3993 10.1637 11.6157 10.0796 11.8415 10.0718C12.0673 10.0639 12.2891 10.1327 12.4707 10.267L14.4541 11.827C14.6036 12.0339 14.6658 12.2913 14.6274 12.5437C14.4641 13.5103 13.9974 14.667 12.6641 14.667C9.65828 14.667 6.7756 13.473 4.65019 11.3475C2.52477 9.22213 1.33073 6.33945 1.33073 3.33367C1.33073 2.00033 2.4874 1.53367 3.4574 1.38367Z" fill="white"/>
</svg>
