<svg width="128" height="128" viewBox="0 0 128 128" fill="none" xmlns="http://www.w3.org/2000/svg">
<path d="M64 0C28.7082 0 0 28.711 0 64C0 99.289 28.7082 128 64 128C99.2917 128 128 99.289 128 64C128 28.711 99.2917 0 64 0ZM64 122.667C31.651 122.667 5.33325 96.349 5.33325 64C5.33325 31.651 31.651 5.33325 64 5.33325C96.349 5.33325 122.667 31.651 122.667 64C122.667 96.349 96.349 122.667 64 122.667Z" fill="white"/>
<path d="M89.4427 61.758L52.1095 37.758C51.2918 37.2243 50.2345 37.1955 49.3908 37.659C48.5313 38.1278 48 39.0238 48 40.0003V88.0003C48 88.9768 48.5313 89.8728 49.3908 90.3415C49.7865 90.5578 50.2293 90.667 50.6668 90.667C51.1668 90.667 51.672 90.5263 52.1095 90.2425L89.4427 66.2425C90.2033 65.753 90.6667 64.9065 90.6667 64.0003C90.6667 63.094 90.2033 62.2478 89.4427 61.758ZM53.3332 83.1148V44.8858L83.0677 64.0003L53.3332 83.1148Z" fill="white"/>
</svg>
