<svg width="24" height="24" viewBox="0 0 24 24" fill="none" xmlns="http://www.w3.org/2000/svg">
<path fill-rule="evenodd" clip-rule="evenodd" d="M9.60039 4.80039C6.94942 4.80039 4.80039 6.94942 4.80039 9.60039C4.80039 12.2514 6.94942 14.4004 9.60039 14.4004C12.2514 14.4004 14.4004 12.2514 14.4004 9.60039C14.4004 6.94942 12.2514 4.80039 9.60039 4.80039ZM2.40039 9.60039C2.40039 5.62394 5.62394 2.40039 9.60039 2.40039C13.5768 2.40039 16.8004 5.62394 16.8004 9.60039C16.8004 11.1554 16.3074 12.5953 15.4693 13.7722L21.2489 19.5519C21.7175 20.0205 21.7175 20.7803 21.2489 21.2489C20.7803 21.7175 20.0205 21.7175 19.5519 21.2489L13.7722 15.4693C12.5953 16.3074 11.1554 16.8004 9.60039 16.8004C5.62394 16.8004 2.40039 13.5768 2.40039 9.60039Z" fill="#BA9B63"/>
</svg>
